<!-- studiMate-favicon.svg -->
<svg xmlns="http://www.w3.org/2000/svg" viewBox="0 0 256 256">
  <defs>
    <linearGradient id="smGrad2" x1="0" y1="0" x2="1" y2="1">
      <stop offset="0%" stop-color="#06B6D4"/>
      <stop offset="100%" stop-color="#F59E0B"/>
    </linearGradient>
  </defs>
  
  <!-- chat bubble -->
  <path d="M40 64c0-13.255 10.745-24 24-24h128c13.255 0 24 10.745 24 24v80c0 13.255-10.745 24-24 24H120l-34 28c-4.9 4.03-12 .47-12-5.8V168H64c-13.255 0-24-10.745-24-24V64Z" 
        fill="none" stroke="url(#smGrad2)" stroke-width="12" stroke-linecap="round" stroke-linejoin="round"/>
  
  <!-- divider -->
  <path d="M128 64v104" stroke="url(#smGrad2)" stroke-width="12"/>
  
  <!-- "AI" text -->
  <text x="76" y="120" font-size="30" font-family="Nunito, sans-serif" font-weight="700" fill="url(#smGrad2)">AI</text>
  
  <!-- light bulb -->
  <g stroke="url(#smGrad2)" stroke-width="4" fill="none" stroke-linecap="round" stroke-linejoin="round">
    <circle cx="176" cy="108" r="14"/>
    <path d="M170 108c2 4 10 4 12 0"/>
    <rect x="170" y="120" width="12" height="8" rx="2" fill="url(#smGrad2)"/>
    <path d="M172 132h8M174 138h4"/>
  </g>
</svg>
